<svg xmlns="http://www.w3.org/2000/svg" id="Capa_1" height="512" viewBox="0 0 512 512" width="512"><g><g><path clip-rule="evenodd" d="m59.311 242.556h91.717 58.319 46.78c-55.03 0-101.158-38.193-113.264-89.504l-115.702 66.073c-17.209 9.803-15.253 23.431 2.864 23.431z" fill="#f0e6e2" fill-rule="evenodd"></path></g><g><path clip-rule="evenodd" d="m359.384 242.556h91.689 31.158c18.117 0 20.073-13.628 2.892-23.431l-115.731-66.072c-12.106 51.311-58.206 89.504-113.264 89.504h44.937 58.319z" fill="#f0e6e2" fill-rule="evenodd"></path></g><g><path clip-rule="evenodd" d="m142.863 153.052c12.106 51.311 58.234 89.504 113.264 89.504 55.059 0 101.158-38.193 113.264-89.504 2.041-8.613 3.09-17.566 3.09-26.775.002-64.23-52.08-116.277-116.353-116.277-64.245 0-116.355 52.047-116.355 116.278 0 9.208 1.077 18.161 3.09 26.774z" fill="#ffda8f" fill-rule="evenodd"></path></g><g><path clip-rule="evenodd" d="m81.142 283.242h48.056 11.256c5.812 0 10.575-4.25 10.575-9.435v-31.251h-91.718v31.251c0 5.185 4.763 9.435 10.603 9.435z" fill="#fff" fill-rule="evenodd"></path></g><g><path clip-rule="evenodd" d="m231.179 283.242h48.056 11.227c5.812 0 10.603-4.25 10.603-9.435v-31.251h-44.937-46.78v31.251c0 5.185 4.763 9.435 10.575 9.435z" fill="#fff" fill-rule="evenodd"></path></g><g><path clip-rule="evenodd" d="m381.187 283.242h48.084 11.227c5.812 0 10.575-4.25 10.575-9.435v-31.251h-91.689v31.251c0 5.185 4.763 9.435 10.575 9.435z" fill="#fff" fill-rule="evenodd"></path></g><g><path clip-rule="evenodd" d="m381.187 283.242h48.084v127.724h-48.084z" fill="#f0e6e2" fill-rule="evenodd"></path></g><g><path clip-rule="evenodd" d="m231.179 283.242h48.056v127.724h-48.056z" fill="#f0e6e2" fill-rule="evenodd"></path></g><g><path clip-rule="evenodd" d="m81.142 283.242h48.056v127.724h-48.056z" fill="#f0e6e2" fill-rule="evenodd"></path></g><g><path clip-rule="evenodd" d="m43.746 456.469h424.508v-33.603c0-6.545-5.358-11.9-11.908-11.9h-27.076-48.084-101.952-48.056-101.98-48.056-25.488c-6.549 0-11.908 5.355-11.908 11.9z" fill="#fff" fill-rule="evenodd"></path></g><g><path clip-rule="evenodd" d="m11 502h490v-33.603c0-6.573-5.358-11.928-11.908-11.928h-20.838-424.508-20.838c-6.549 0-11.908 5.355-11.908 11.928z" fill="#f0e6e2" fill-rule="evenodd"></path></g><g><path d="m489.093 446.469h-10.839v-23.603c0-12.076-9.827-21.9-21.907-21.9h-17.076v-107.724h1.228c11.346 0 20.575-8.718 20.575-19.435v-21.251h21.158c12.715 0 21.751-5.451 24.173-14.581 2.628-9.91-3.475-20.204-16.323-27.535l-109.466-62.496c1.224-7.042 1.868-14.28 1.868-21.667-.002-69.629-56.684-126.277-126.356-126.277s-126.355 56.648-126.355 126.278c0 7.392.645 14.635 1.87 21.681l-109.431 62.477c-12.868 7.33-18.983 17.625-16.357 27.538 2.418 9.131 11.453 14.582 24.17 14.582h19.287v21.251c0 10.716 9.243 19.435 20.604 19.435h1.228v107.725h-15.49c-12.08 0-21.908 9.824-21.908 21.9v23.603h-10.838c-12.08-.001-21.908 9.836-21.908 21.927v33.603c0 5.523 4.478 10 10 10h490c5.522 0 10-4.477 10-10v-33.603c0-12.091-9.827-21.928-21.907-21.928zm-69.822-45.503h-28.084v-107.724h28.084zm-130.037 0v-107.724h1.228c11.36 0 20.604-8.718 20.604-19.435v-21.251h38.319v21.251c0 10.716 9.229 19.435 20.574 19.435h1.228v107.725h-81.953zm-48.055 0v-107.724h28.056v107.725h-28.056zm-101.981 0v-107.724h1.255c11.345 0 20.575-8.718 20.575-19.435v-21.251h38.319v21.251c0 10.716 9.23 19.435 20.575 19.435h1.256v107.725h-81.98zm151.867-148.41v20.575c-.144.059-.347.111-.604.111h-70.539c-.244 0-.438-.047-.575-.102v-20.584zm150.008 20.584c-.138.054-.331.102-.575.102h-70.539c-.244 0-.437-.047-.574-.102v-20.584h71.688zm39.094-45.33c2.96 1.689 4.746 3.269 5.751 4.417-.892.184-2.106.329-3.687.329h-157.93c23.502-15.11 41.685-37.791 51.088-64.565zm-224.039-207.81c58.645 0 106.354 47.676 106.354 106.278s-47.71 106.278-106.354 106.278-106.354-47.676-106.354-106.278 47.709-106.278 106.354-106.278zm-229.777 212.23c1.009-1.15 2.801-2.73 5.769-4.421l104.752-59.805c9.404 26.768 27.585 49.444 51.083 64.552h-157.931c-1.573 0-2.784-.144-3.673-.326zm42.961 40.905v-20.58h71.717v20.584c-.138.054-.331.102-.575.102h-70.539c-.258.001-.46-.049-.603-.106zm21.831 20.107h28.056v107.725h-28.056zm399.857 198.758h-470v-23.603c0-1.045.874-1.928 1.908-1.928h188.169c5.522 0 10-4.477 10-10s-4.478-10-10-10h-157.331v-23.603c0-1.03.874-1.9 1.908-1.9h400.692c1.034 0 1.907.87 1.907 1.9v23.603h-157.33c-5.522 0-10 4.477-10 10s4.478 10 10 10h188.169c1.016 0 1.907.901 1.907 1.928v23.603z"></path><path d="m223.39 170.762h-12.284c-5.522 0-10 4.477-10 10s4.478 10 10 10h13.362v6.405c0 5.523 4.478 10 10 10s10-4.477 10-10v-6.405h19.437v6.405c0 5.523 4.478 10 10 10s10-4.477 10-10v-7.777c15.71-4.377 27.274-18.788 27.274-35.856 0-10.752-4.586-20.45-11.9-27.256 7.313-6.807 11.9-16.504 11.9-27.256 0-17.068-11.564-31.479-27.274-35.856v-7.777c0-5.523-4.478-10-10-10s-10 4.477-10 10v6.405h-19.437v-6.405c0-5.523-4.478-10-10-10s-10 4.477-10 10v6.405h-13.362c-5.522 0-10 4.477-10 10s4.478 10 10 10h12.284v44.484zm67.789-17.228c0 9.5-7.749 17.228-17.274 17.228h-30.515v-34.484h30.515c9.525 0 17.274 7.741 17.274 17.256zm0-54.513c0 9.515-7.749 17.256-17.274 17.256h-30.515v-34.483h30.515c9.525 0 17.274 7.728 17.274 17.227z"></path><path d="m256.015 446.469c-5.522 0-10 4.477-10 10s4.478 10 10 10h.028c5.522 0 9.985-4.477 9.985-10s-4.491-10-10.013-10z"></path></g></g></svg>