<svg xmlns="http://www.w3.org/2000/svg" id="Capa_1" height="512" viewBox="0 0 512 512" width="512"><path d="m10.004 10h163.03v56.71h-163.03z" fill="#868eaf"></path><path d="m337.544 10h164.46v56.71h-164.46z" fill="#868eaf"></path><path d="m7.853 445.29h492v56.714h-492z" fill="#868eaf"></path><path d="m65.02 66.71h50.51v152.87h-50.51z" fill="#dfecff"></path><path d="m65.02 379.58h50.51v65.71h-50.51z" fill="#dfecff"></path><path d="m395.1 66.71h50.5v152.87h-50.5z" fill="#dfecff"></path><path d="m395.1 379.58h50.5v65.71h-50.5z" fill="#dfecff"></path><path d="m281.25 184.31v260.98h-50.5v-260.51c7.75 2.42 15.99 3.72 24.53 3.72 9.08 0 17.81-1.47 25.97-4.19z" fill="#dfecff"></path><g fill="#ffd0c6"><path d="m122.921 259.577h-67.536c-10.522 0-19.052-8.954-19.052-20 0-11.046 8.53-20 19.052-20h67.536c10.522 0 19.052 8.954 19.052 20 0 11.046-8.53 20-19.052 20z"></path><path d="m132.243 299.577h-81.168c-11.046 0-20-8.954-20-20 0-11.046 8.954-20 20-20h81.168c11.046 0 20 8.954 20 20 0 11.046-8.954 20-20 20z"></path><path d="m132.243 339.577h-81.168c-11.046 0-20-8.954-20-20 0-11.046 8.954-20 20-20h81.168c11.046 0 20 8.954 20 20 0 11.046-8.954 20-20 20z"></path><path d="m120.145 379.577h-64.785c-10.508 0-19.027-8.954-19.027-20 0-11.046 8.519-20 19.027-20h64.785c10.508 0 19.027 8.954 19.027 20 0 11.046-8.519 20-19.027 20z"></path><path d="m186 240.67v40.32c0 14.36-8.65 26.01-23.01 26.01-7.19 0-10.69-2.91-15.4-7.62-1.19-1.19-2.27-2.5-3.22-3.91.71-.53 1.38-1.12 2.01-1.75 3.62-3.62 5.86-8.62 5.86-14.14 0-11.05-8.95-20-20-20h-2.75l-.51-1.04c2.82-.99 5.35-2.66 7.41-4.82 3.45-3.62 5.58-8.62 5.58-14.14 0-11.05-8.53-20-19.05-20h41.99c11.65 0 21.09 9.44 21.09 21.09z"></path><path d="m388.089 259.577h67.536c10.522 0 19.052-8.954 19.052-20 0-11.046-8.53-20-19.052-20h-67.536c-10.522 0-19.052 8.954-19.052 20 .001 11.046 8.53 20 19.052 20z"></path><path d="m378.767 299.577h81.168c11.046 0 20-8.954 20-20 0-11.046-8.954-20-20-20h-81.168c-11.046 0-20 8.954-20 20 0 11.046 8.955 20 20 20z"></path><path d="m378.767 339.577h81.168c11.046 0 20-8.954 20-20 0-11.046-8.954-20-20-20h-81.168c-11.046 0-20 8.954-20 20 0 11.046 8.955 20 20 20z"></path><path d="m390.865 379.577h64.785c10.508 0 19.027-8.954 19.027-20 0-11.046-8.519-20-19.027-20h-64.785c-10.508 0-19.027 8.954-19.027 20 0 11.046 8.519 20 19.027 20z"></path><path d="m325.01 240.67v40.32c0 14.36 8.65 26.01 23.01 26.01 7.19 0 10.69-2.91 15.4-7.62 1.19-1.19 2.27-2.5 3.22-3.91-.71-.53-1.38-1.12-2.01-1.75-3.62-3.62-5.86-8.62-5.86-14.14 0-11.05 8.95-20 20-20h2.75l.51-1.04c-2.82-.99-5.35-2.66-7.41-4.82-3.45-3.62-5.58-8.62-5.58-14.14 0-11.05 8.53-20 19.05-20h-41.99c-11.65 0-21.09 9.44-21.09 21.09z"></path></g><path d="m255.284 188.505c-45.427 0-82.253-36.826-82.253-82.252v-96.253h164.505v96.253c0 45.426-36.826 82.252-82.252 82.252z" fill="#ffa76b"></path><path d="m278.945 70.297c0-13.918-12.05-25.022-26.286-23.448-10.757 1.189-19.453 9.8-20.735 20.547-.764 6.406 1.042 12.379 4.522 17.026 5.006 6.685 7.071 15.116 5.169 23.248l-10.119 28.172h23.851 23.851l-10.091-28.051c-1.871-8.005-.206-16.512 4.853-22.992 3.124-4.001 4.985-9.033 4.985-14.502z" fill="#868eaf"></path><path d="m502 76.71c5.523 0 10-4.477 10-10s-4.477-10-10-10h-154.464v-36.71h154.464c5.523 0 10-4.477 10-10s-4.477-10-10-10h-492c-5.523 0-10 4.477-10 10s4.477 10 10 10h153.031v36.71h-153.031c-5.523 0-10 4.477-10 10s4.477 10 10 10h45.02v132.877c-15.851.203-28.687 13.575-28.687 29.991 0 6.397 1.955 12.328 5.273 17.203-6.438 5.507-10.531 13.68-10.531 22.797 0 7.678 2.902 14.688 7.663 20-4.761 5.312-7.663 12.322-7.663 20 0 9.115 4.091 17.287 10.528 22.794-3.315 4.875-5.27 10.807-5.27 17.206 0 16.424 12.838 29.801 28.687 29.991v45.717h-45.02c-5.523 0-10 4.477-10 10s4.477 10 10 10h492c5.523 0 10-4.477 10-10s-4.477-10-10-10h-46.4v-45.708h.05c16.005 0 29.027-13.458 29.027-30 0-6.398-1.954-12.331-5.27-17.206 6.437-5.507 10.528-13.679 10.528-22.794 0-7.678-2.902-14.688-7.663-20 4.761-5.312 7.663-12.322 7.663-20 0-9.116-4.093-17.29-10.531-22.797 3.317-4.875 5.273-10.806 5.273-17.203 0-16.542-13.033-30-29.052-30h-.025v-132.868zm-42.065 192.867c5.514 0 10 4.486 10 10s-4.486 10-10 10h-81.168c-5.44 0-9.997-4.559-9.997-9.998 0-5.514 4.486-10 10-10zm10 50.001c0 5.514-4.486 10-10 10h-81.168c-5.514 0-10-4.486-10-10s4.486-10 10-10h81.168c5.514-.001 10 4.485 10 10zm-109.269-89.886c-2.223 6.558-2.154 13.836.198 20.348.519 1.444 1.134 2.85 1.866 4.196-12.714 8.081-17.56 24.884-10.939 38.455.426.873.879 1.734 1.39 2.565-1.822 1.46-3.014 1.743-5.162 1.743-9.603 0-13.01-8.625-13.01-16.01v-40.32c0-6.115 4.975-11.09 11.09-11.09h14.599c-.011.038-.02.077-.032.113zm24.434-152.982v132.87h-39c-17.143 0-31.09 13.947-31.09 31.09v40.32c0 20.866 13.883 36.01 33.01 36.01.297 0 .577-.018.867-.025-.074.859-.12 1.725-.12 2.602 0 11.544 6.559 21.58 16.142 26.594-1.96 4.038-3.071 8.589-3.071 13.406 0 14.502 10.009 26.632 23.262 29.404v46.304h-93.85v-45.475c0-5.523-4.477-10-10-10s-10 4.477-10 10v45.476h-30.5v-237.93c4.736.753 9.589 1.148 14.534 1.148 5.444 0 10.779-.478 15.966-1.387v102.693c0 5.523 4.477 10 10 10s10-4.477 10-10v-108.606c33.05-14.046 56.286-46.836 56.286-84.951v-29.543zm-57.564-56.71v86.252c0 39.84-32.412 72.252-72.252 72.252s-72.252-32.412-72.252-72.252v-86.252zm-106.786 171.793v243.493h-95.22v-46.234c13.44-2.618 23.642-14.834 23.642-29.474 0-4.817-1.11-9.368-3.071-13.406 9.583-5.014 16.141-15.05 16.141-26.594 0-.877-.046-1.744-.12-2.602.29.007.57.025.868.025 19.127 0 33.01-15.144 33.01-36.01v-40.32c0-17.143-13.947-31.09-31.09-31.09h-39.38v-132.871h37.501v29.542c0 38.664 23.911 71.842 57.719 85.541zm-169.675 137.784c-5.514 0-10-4.486-10-10s4.486-10 10-10h81.168c5.514 0 10 4.486 10 10s-4.486 10-10 10zm-10-50c0-5.514 4.486-10 10-10l81.165.003c5.514 0 10 4.486 10 10 0 2.977-1.385 5.954-3.747 7.791-1.714 1.377-3.886 2.206-6.25 2.206h-81.168c-5.514 0-10-4.486-10-10zm109.236-49.997h14.6c6.115 0 11.09 4.975 11.09 11.09v40.32c0 7.385-3.407 16.01-13.01 16.01-2.148 0-3.34-.283-5.162-1.743.515-.836.97-1.702 1.398-2.581 3.746-7.694 3.98-16.827.669-24.712-2.201-5.241-5.945-9.84-10.626-13.064-.339-.234-.983-.618-.983-.618l.234-.495c3.535-7.68 4.581-15.982 1.817-24.115-.01-.031-.017-.062-.027-.092zm-44.781-152.87v132.867h-30.51v-132.867zm-50.145 152.867h67.477c.02 0 .038.003.058.003 4.99 0 9.05 4.486 9.05 10 0 5.008-3.75 9.997-9.049 9.997h-67.536c-4.991 0-9.051-4.486-9.051-10s4.06-10 9.051-10zm-9.052 130c0-5.514 4.049-10 9.027-10h64.785c4.978 0 9.027 4.486 9.027 10s-4.05 10-9.027 10h-64.785c-4.977 0-9.027-4.486-9.027-10zm28.687 30.003h30.51v45.706h-30.51zm330.08 45.706v-45.706h30.5v45.706zm50.55-65.709h-64.785c-4.978 0-9.027-4.486-9.027-10s4.05-10 9.027-10h64.785c4.977 0 9.026 4.487 9.026 10 .001 5.514-4.049 10-9.026 10zm9.027-129.999c0 5.514-4.061 10-9.052 10h-67.537c-5.309-.001-9.048-4.986-9.048-9.997 0-5.514 4.06-10 9.05-10 .016 0 .032-.002.048-.002h67.486c4.992-.002 9.053 4.484 9.053 9.999zm-29.077-30.001h-30.5v-132.867h30.5z"></path><path d="m502 492h-492c-5.523 0-10 4.477-10 10s4.477 10 10 10h492c5.523 0 10-4.477 10-10s-4.477-10-10-10z"></path><path d="m290.49 340.29c-2.095-5.029-8.028-7.48-13.06-5.4-5.039 2.082-7.489 8.015-5.41 13.05 2.081 5.038 8.025 7.495 13.06 5.41 5.046-2.09 7.476-8.019 5.41-13.06z"></path><path d="m222.085 132.46c-1.101 3.063-.641 6.471 1.232 9.133 1.873 2.663 4.924 4.247 8.179 4.247h47.702c3.256 0 6.308-1.585 8.181-4.249s2.331-6.072 1.229-9.136l-9.873-27.446c-1.023-5.015.123-10.234 3.108-14.058 4.646-5.951 7.101-13.093 7.101-20.655 0-9.541-4.078-18.665-11.189-25.033-7.107-6.365-16.656-9.407-26.196-8.354-15.308 1.693-27.742 14.016-29.565 29.302-1.035 8.676 1.255 17.272 6.448 24.205 3.25 4.34 4.528 9.588 3.544 14.481zm19.768-63.88c.733-6.151 5.74-11.11 11.904-11.792 3.955-.437 7.738.761 10.656 3.375 2.88 2.579 4.532 6.273 4.532 10.134 0 3.059-.991 5.946-2.866 8.348-6.873 8.804-9.318 20.256-6.708 31.421.087.376.197.746.328 1.109l5.275 14.666h-19.26l5.313-14.791c.13-.361.239-.73.326-1.104 2.525-10.801.01-22.29-6.902-31.52-2.099-2.801-3.021-6.297-2.598-9.846z"></path></svg>