<svg xmlns="http://www.w3.org/2000/svg" height="496pt" viewBox="0 0 496 496" width="496pt"><path d="m320 456v32h-144v-32zm0 0" fill="#4fc1e9"></path><path d="m288 312v-32l-19.039062-19.039062c-3.199219-3.199219-4.960938-7.519532-4.960938-12 0-4.640626 1.921875-8.960938 4.960938-12 3.039062-3.039063 7.359374-4.960938 12-4.960938h1.117187c3.84375 0 7.523437 1.28125 10.5625 3.679688l29.359375 23.519531c3.761719 3.039062 6 7.601562 6 12.480469v106.960937c0 3.519531-1.121094 6.878906-3.199219 9.597656l-17.601562 23.523438c-2.078125 2.71875-3.199219 6.078125-3.199219 9.597656v34.640625h-112v-34.640625c0-3.519531-1.121094-6.878906-3.199219-9.597656l-17.601562-23.523438c-2.078125-2.71875-3.199219-6.078125-3.199219-9.597656v-66.640625zm0 0" fill="#f0d0b4"></path><g fill="#e6e9ed"><path d="m488 56v304h-160v-48h32v-65.601562c5.199219 1.042968 10.558594 1.601562 16 1.601562 22.078125 0 42.078125-8.960938 56.558594-23.441406 14.480468-14.480469 23.441406-34.480469 23.441406-56.558594 0-44.160156-35.839844-80-80-80-5.441406 0-10.800781.558594-16 1.601562v-33.601562zm0 0"></path><path d="m136 246.398438v65.601562h32v48h-160v-304h128v33.601562c-5.199219-1.042968-10.558594-1.601562-16-1.601562-44.160156 0-80 35.839844-80 80 0 22.078125 8.960938 42.078125 23.441406 56.558594 14.480469 14.480468 34.480469 23.441406 56.558594 23.441406 5.441406 0 10.800781-.558594 16-1.601562zm0 0"></path><path d="m136 312v-304h224v304h-32v-40.320312c0-4.878907-2.238281-9.441407-6-12.480469l-29.359375-23.519531c-3.039063-2.398438-6.71875-3.679688-10.5625-3.679688h-1.117187c-4.640626 0-8.960938 1.921875-12 4.960938-3.039063 3.039062-4.960938 7.359374-4.960938 12 0 4.480468 1.761719 8.800781 4.960938 12l19.039062 19.039062v32zm0 0"></path></g><path d="m376 88c44.160156 0 80 35.839844 80 80 0 22.078125-8.960938 42.078125-23.441406 56.558594l-.558594-.558594c0-30.960938-25.039062-56-56-56 13.28125 0 24-10.71875 24-24s-10.71875-24-24-24c-6.160156 0-11.761719 2.320312-16 6.078125v-36.476563c5.199219-1.042968 10.558594-1.601562 16-1.601562zm0 0" fill="#ffeaa7"></path><path d="m248 40c44.160156 0 80 35.839844 80 80 0 22.078125-8.960938 42.078125-23.441406 56.558594l-.558594-.558594c0-15.519531-6.238281-29.441406-16.398438-39.601562-10.160156-10.160157-24.082031-16.398438-39.601562-16.398438 13.28125 0 24-10.71875 24-24s-10.71875-24-24-24-24 10.71875-24 24 10.71875 24 24 24c-30.960938 0-56 25.039062-56 56l-.558594.558594c-14.480468-14.480469-23.441406-34.480469-23.441406-56.558594 0-44.160156 35.839844-80 80-80zm0 0" fill="#ffeaa7"></path><path d="m136 89.601562v36.476563c-4.238281-3.757813-9.839844-6.078125-16-6.078125-13.28125 0-24 10.71875-24 24s10.71875 24 24 24c-30.960938 0-56 25.039062-56 56l-.558594.558594c-14.480468-14.480469-23.441406-34.480469-23.441406-56.558594 0-44.160156 35.839844-80 80-80 5.441406 0 10.800781.558594 16 1.601562zm0 0" fill="#ffeaa7"></path><path d="m432 224 .558594.558594c-14.480469 14.480468-34.480469 23.441406-56.558594 23.441406-5.441406 0-10.800781-.558594-16-1.601562v-76.078126c5.039062-1.519531 10.398438-2.320312 16-2.320312 30.960938 0 56 25.039062 56 56zm0 0" fill="#ff826e"></path><path d="m136 170.320312v76.078126c-5.199219 1.042968-10.558594 1.601562-16 1.601562-22.078125 0-42.078125-8.960938-56.558594-23.441406l.558594-.558594c0-30.960938 25.039062-56 56-56 5.601562 0 10.960938.800781 16 2.320312zm0 0" fill="#69d6f4"></path><path d="m376 120c13.28125 0 24 10.71875 24 24s-10.71875 24-24 24c-6.160156 0-11.761719-2.320312-16-6.078125v-35.84375c4.238281-3.757813 9.839844-6.078125 16-6.078125zm0 0" fill="#f0d0b4"></path><path d="m136 126.078125v35.84375c-4.238281 3.757813-9.839844 6.078125-16 6.078125-13.28125 0-24-10.71875-24-24s10.71875-24 24-24c6.160156 0 11.761719 2.320312 16 6.078125zm0 0" fill="#f0d0b4"></path><path d="m304 176 .558594.558594c-14.480469 14.480468-34.480469 23.441406-56.558594 23.441406s-42.078125-8.960938-56.558594-23.441406l.558594-.558594c0-30.960938 25.039062-56 56-56 15.519531 0 29.441406 6.238281 39.601562 16.398438 10.160157 10.160156 16.398438 24.082031 16.398438 39.601562zm0 0" fill="#5cd6b3"></path><path d="m272 96c0 13.253906-10.746094 24-24 24s-24-10.746094-24-24 10.746094-24 24-24 24 10.746094 24 24zm0 0" fill="#f0d0b4"></path><path d="m248 208c48.519531 0 88-39.480469 88-88s-39.480469-88-88-88-88 39.480469-88 88 39.480469 88 88 88zm-47.878906-34.375c1.246094-25.359375 22.214844-45.625 47.878906-45.625s46.632812 20.265625 47.878906 45.625c-12.734375 11.382812-29.488281 18.375-47.878906 18.375s-35.144531-6.992188-47.878906-18.375zm31.878906-77.625c0-8.824219 7.175781-16 16-16s16 7.175781 16 16-7.175781 16-16 16-16-7.175781-16-16zm16-48c39.703125 0 72 32.296875 72 72 0 13.792969-3.96875 26.648438-10.71875 37.617188-5.585938-18.5625-19.371094-33.578126-37.128906-40.847657 4.824218-5.609375 7.847656-12.808593 7.847656-20.769531 0-17.648438-14.351562-32-32-32s-32 14.351562-32 32c0 7.960938 3.023438 15.160156 7.855469 20.769531-17.765625 7.269531-31.550781 22.285157-37.128907 40.847657-6.757812-10.96875-10.726562-23.824219-10.726562-37.617188 0-39.703125 32.296875-72 72-72zm0 0"></path><path d="m48 448h16v16h-16zm0 0"></path><path d="m48 480h16v16h-16zm0 0"></path><path d="m80 352h16v144h-16zm0 0"></path><path d="m112 416h16v16h-16zm0 0"></path><path d="m112 448h16v48h-16zm0 0"></path><path d="m160 240h16v16h-16zm0 0"></path><path d="m192 240h48v16h-48zm0 0"></path><path d="m160 272h80v16h-80zm0 0"></path><path d="m32 288h80v16h-80zm0 0"></path><path d="m32 320h80v16h-80zm0 0"></path><path d="m368 48v-48h-240v48h-128v320h48v64h16v-80h-48v-288h112v16.398438c-2.664062-.238282-5.328125-.398438-8-.398438-48.519531 0-88 39.480469-88 88s39.480469 88 88 88c2.671875 0 5.335938-.160156 8-.398438v64.398438h32v32h-48v48h16v-32h32v10.664062c0 5.167969 1.710938 10.28125 4.808594 14.398438l17.589844 23.480469c1.035156 1.378906 1.601562 3.082031 1.601562 4.800781v26.65625h-16v48h160v-48h-16v-26.664062c0-1.71875.566406-3.425782 1.601562-4.808594l17.589844-23.464844c3.097656-4.117188 4.808594-9.230469 4.808594-14.398438v-10.664062h32v32h16v-48h-48v-32h32v-64.398438c2.664062.238282 5.328125.398438 8 .398438 48.519531 0 88-39.480469 88-88s-39.480469-88-88-88c-2.671875 0-5.335938.160156-8 .398438v-16.398438h112v288h-48v80h16v-64h48v-320zm8 112c-2.839844 0-5.585938-.777344-8-2.167969v-27.65625c2.414062-1.398437 5.160156-2.175781 8-2.175781 8.824219 0 16 7.175781 16 16s-7.175781 16-16 16zm-272-16c0-8.824219 7.175781-16 16-16 2.839844 0 5.585938.777344 8 2.167969v27.65625c-2.414062 1.398437-5.160156 2.175781-8 2.175781-8.824219 0-16-7.175781-16-16zm16-48c2.671875 0 5.34375.183594 8 .480469v16.664062c-2.601562-.679687-5.265625-1.144531-8-1.144531-17.648438 0-32 14.351562-32 32 0 7.960938 3.023438 15.160156 7.855469 20.769531-17.765625 7.269531-31.550781 22.285157-37.128907 40.847657-6.757812-10.96875-10.726562-23.824219-10.726562-37.617188 0-39.703125 32.296875-72 72-72zm0 144c-18.390625 0-35.144531-6.992188-47.878906-18.375 1.246094-25.359375 22.214844-45.625 47.878906-45.625 2.695312 0 5.359375.289062 8 .734375v62.792969c-2.65625.289062-5.328125.472656-8 .472656zm192 240h-128v-16h128zm8-101.335938c0 1.71875-.566406 3.425782-1.601562 4.808594l-17.589844 23.464844c-3.097656 4.117188-4.808594 9.230469-4.808594 14.398438v26.664062h-96v-26.664062c0-5.167969-1.710938-10.28125-4.808594-14.398438l-17.589844-23.472656c-1.035156-1.375-1.601562-3.082032-1.601562-4.800782v-58.664062h16v40h16v-40h16v40h16v-40h29.59375c-8.777344 11.441406-13.59375 25.335938-13.59375 40h16c0-13.335938 5.191406-25.878906 14.625-35.3125l9.375-9.375v-38.625l-21.375-21.375c-1.671875-1.671875-2.625-3.984375-2.625-6.34375 0-4.945312 4.023438-8.96875 8.96875-8.96875h1.078125c2.03125 0 4.015625.695312 5.601563 1.96875l29.34375 23.472656c1.910156 1.527344 3.007812 3.804688 3.007812 6.246094zm32-74.664062h-16v-32.3125c0-7.328125-3.28125-14.160156-9.007812-18.742188l-29.34375-23.480468c-4.417969-3.519532-9.953126-5.464844-15.601563-5.464844h-1.078125c-13.769531 0-24.96875 11.199219-24.96875 24.96875 0 6.574219 2.664062 13.007812 7.3125 17.65625l16.6875 16.6875v20.6875h-136v-288h208zm16-64.480469v-62.792969c2.640625-.4375 5.304688-.726562 8-.726562 25.664062 0 46.632812 20.265625 47.878906 45.625-12.734375 11.382812-29.488281 18.375-47.878906 18.375-2.671875 0-5.34375-.183594-8-.480469zm8-143.519531c39.703125 0 72 32.296875 72 72 0 13.792969-3.96875 26.648438-10.71875 37.617188-5.585938-18.5625-19.371094-33.578126-37.128906-40.847657 4.824218-5.609375 7.847656-12.808593 7.847656-20.769531 0-17.648438-14.351562-32-32-32-2.734375 0-5.398438.464844-8 1.144531v-16.664062c2.65625-.296875 5.328125-.480469 8-.480469zm0 0"></path><path d="m432 448h16v16h-16zm0 0"></path><path d="m432 480h16v16h-16zm0 0"></path><path d="m400 352h16v144h-16zm0 0"></path><path d="m368 416h16v16h-16zm0 0"></path><path d="m368 448h16v48h-16zm0 0"></path><path d="m384 288h80v16h-80zm0 0"></path><path d="m384 320h80v16h-80zm0 0"></path></svg>