<svg xmlns="http://www.w3.org/2000/svg" height="480pt" viewBox="0 0 480 480" width="480pt"><path d="m344 104v336h-304c-13.847656.003906-26.121094-8.910156-30.398438-22.078125-1.0625-3.203125-1.605468-6.550781-1.601562-9.921875v-368c0-17.671875 14.328125-32 32-32h208v80c.027344 8.824219 7.175781 15.972656 16 16zm0 0" fill="#e6e7e8"></path><path d="m264 104h80l-96-96v80c0 8.835938 7.164062 16 16 16zm0 0" fill="#acabb1"></path><path d="m248 152h192c17.671875 0 32 14.328125 32 32v256c0 17.671875-14.328125 32-32 32h-192c-17.671875 0-32-14.328125-32-32v-256c0-17.671875 14.328125-32 32-32zm0 0" fill="#ffb655"></path><path d="m440.238281 246.71875c.199219 17.664062-13.9375 32.15625-31.597656 32.402344l-115.039063 1.597656-12.960937.160156c-17.664063.195313-32.15625-13.9375-32.402344-31.597656l-.476562-32c-.199219-17.664062 13.9375-32.15625 31.597656-32.402344l128-1.757812c3.25-.003906 6.480469.453125 9.601563 1.359375 13.386718 4.015625 22.621093 16.261719 22.800781 30.238281zm0 0" fill="#e6e7e8"></path><g fill="#ffd5ca"><path d="m296 336c0 13.253906-10.746094 24-24 24s-24-10.746094-24-24 10.746094-24 24-24 24 10.746094 24 24zm0 0"></path><path d="m368 336c0 13.253906-10.746094 24-24 24s-24-10.746094-24-24 10.746094-24 24-24 24 10.746094 24 24zm0 0"></path><path d="m296 416c0 13.253906-10.746094 24-24 24s-24-10.746094-24-24 10.746094-24 24-24 24 10.746094 24 24zm0 0"></path><path d="m368 416c0 13.253906-10.746094 24-24 24s-24-10.746094-24-24 10.746094-24 24-24 24 10.746094 24 24zm0 0"></path><path d="m416 312c-13.253906 0-24 10.746094-24 24v80c0 13.253906 10.746094 24 24 24s24-10.746094 24-24v-80c0-13.253906-10.746094-24-24-24zm0 0"></path></g><path d="m440.238281 246.71875c.199219 17.664062-13.9375 32.15625-31.597656 32.402344l-115.039063 1.597656c46.582032-24.382812 88.375-56.988281 123.359376-96.238281 13.386718 4.015625 22.621093 16.261719 22.800781 30.238281zm0 0" fill="#d8d7da"></path><path d="m440 144h-88v-40c0-.175781-.089844-.328125-.105469-.503906-.039062-.699219-.175781-1.394532-.40625-2.054688-.089843-.257812-.152343-.503906-.265625-.753906-.386718-.871094-.929687-1.664062-1.597656-2.34375l-96-96c-.683594-.671875-1.480469-1.210938-2.351562-1.601562-.242188-.101563-.472657-.167969-.722657-.253907-.679687-.234375-1.390625-.375-2.109375-.4179685-.128906.0195313-.273437-.0703125-.441406-.0703125h-208c-22.082031.0273438-39.9726562 17.917969-40 40v368c.0273438 22.082031 17.917969 39.972656 40 40h168.800781c3.828125 18.613281 20.199219 31.976562 39.199219 32h192c22.082031-.027344 39.972656-17.917969 40-40v-256c-.027344-22.082031-17.917969-39.972656-40-40zm-115.3125-48h-60.6875c-4.417969 0-8-3.582031-8-8v-60.6875zm-308.6875 312v-368c0-13.253906 10.746094-24 24-24h200v72c0 13.253906 10.746094 24 24 24h72v32h-88c-22.082031.027344-39.972656 17.917969-40 40v248h-168c-13.253906 0-24-10.746094-24-24zm448 32c0 13.253906-10.746094 24-24 24h-192c-13.253906 0-24-10.746094-24-24v-256c0-13.253906 10.746094-24 24-24h192c13.253906 0 24 10.746094 24 24zm0 0"></path><path d="m408 176h-128c-22.082031.027344-39.972656 17.917969-40 40v32c.027344 22.082031 17.917969 39.972656 40 40h128c22.082031-.027344 39.972656-17.917969 40-40v-32c-.027344-22.082031-17.917969-39.972656-40-40zm24 72c0 13.253906-10.746094 24-24 24h-128c-13.253906 0-24-10.746094-24-24v-32c0-13.253906 10.746094-24 24-24h128c13.253906 0 24 10.746094 24 24zm0 0"></path><path d="m272 304c-17.671875 0-32 14.328125-32 32s14.328125 32 32 32 32-14.328125 32-32-14.328125-32-32-32zm0 48c-8.835938 0-16-7.164062-16-16s7.164062-16 16-16 16 7.164062 16 16-7.164062 16-16 16zm0 0"></path><path d="m344 304c-17.671875 0-32 14.328125-32 32s14.328125 32 32 32 32-14.328125 32-32-14.328125-32-32-32zm0 48c-8.835938 0-16-7.164062-16-16s7.164062-16 16-16 16 7.164062 16 16-7.164062 16-16 16zm0 0"></path><path d="m272 384c-17.671875 0-32 14.328125-32 32s14.328125 32 32 32 32-14.328125 32-32-14.328125-32-32-32zm0 48c-8.835938 0-16-7.164062-16-16s7.164062-16 16-16 16 7.164062 16 16-7.164062 16-16 16zm0 0"></path><path d="m344 384c-17.671875 0-32 14.328125-32 32s14.328125 32 32 32 32-14.328125 32-32-14.328125-32-32-32zm0 48c-8.835938 0-16-7.164062-16-16s7.164062-16 16-16 16 7.164062 16 16-7.164062 16-16 16zm0 0"></path><path d="m416 304c-17.671875 0-32 14.328125-32 32v80c0 17.671875 14.328125 32 32 32s32-14.328125 32-32v-80c0-17.671875-14.328125-32-32-32zm16 112c0 8.835938-7.164062 16-16 16s-16-7.164062-16-16v-80c0-8.835938 7.164062-16 16-16s16 7.164062 16 16zm0 0"></path><path d="m82.34375 141.65625c3.125 3.121094 8.1875 3.121094 11.3125 0l72-72c3.03125-3.140625 2.988281-8.128906-.097656-11.214844-3.085938-3.085937-8.074219-3.128906-11.214844-.097656l-72 72c-3.121094 3.125-3.121094 8.1875 0 11.3125zm0 0"></path><path d="m128 128c0 13.253906 10.746094 24 24 24s24-10.746094 24-24-10.746094-24-24-24-24 10.746094-24 24zm32 0c0 4.417969-3.582031 8-8 8s-8-3.582031-8-8 3.582031-8 8-8 8 3.582031 8 8zm0 0"></path><path d="m96 96c13.253906 0 24-10.746094 24-24s-10.746094-24-24-24-24 10.746094-24 24 10.746094 24 24 24zm0-32c4.417969 0 8 3.582031 8 8s-3.582031 8-8 8-8-3.582031-8-8 3.582031-8 8-8zm0 0"></path><path d="m56 216h96c4.417969 0 8-3.582031 8-8s-3.582031-8-8-8h-96c-4.417969 0-8 3.582031-8 8s3.582031 8 8 8zm0 0"></path><path d="m168 232h-112c-4.417969 0-8 3.582031-8 8s3.582031 8 8 8h112c4.417969 0 8-3.582031 8-8s-3.582031-8-8-8zm0 0"></path><path d="m88 264h-32c-4.417969 0-8 3.582031-8 8s3.582031 8 8 8h32c4.417969 0 8-3.582031 8-8s-3.582031-8-8-8zm0 0"></path><path d="m168 264h-48c-4.417969 0-8 3.582031-8 8s3.582031 8 8 8h48c4.417969 0 8-3.582031 8-8s-3.582031-8-8-8zm0 0"></path></svg>