<svg xmlns="http://www.w3.org/2000/svg" id="Capa_1" height="512" viewBox="0 0 512 512" width="512"><g id="XMLID_797_"><path id="XMLID_825_" d="m100 10c-19.882 0-36 16.118-36 36v416c0-22.091 17.909-40 40-40h344v-412z" fill="#91def5"></path><path id="XMLID_430_" d="m448 422h-344c-22.091 0-40 17.909-40 40 0 22.091 17.909 40 40 40h344c-22.109-22.109-22.109-57.891 0-80z" fill="#fff"></path><path id="XMLID_1909_" d="m336 502-40-40-40 40v-80h80z" fill="#f6838d"></path><g id="XMLID_172_"><path id="XMLID_445_" d="m244.155 173.317c-1.83-4.446-6.116-7.317-10.924-7.317-.004 0-.009 0-.012 0-4.813.005-9.1 2.886-10.922 7.339-.031.076-.062.152-.09.229l-30.04 78.873c-1.966 5.161.624 10.939 5.785 12.904 1.172.446 2.374.658 3.558.658 4.029 0 7.827-2.454 9.347-6.443l5.029-13.203h34.461l4.972 13.175c1.949 5.166 7.717 7.779 12.887 5.824 5.167-1.949 7.774-7.719 5.824-12.886l-29.767-78.876c-.034-.094-.07-.185-.108-.277zm-20.651 53.039 9.692-25.448 9.604 25.448z"></path><path id="XMLID_481_" d="m128.282 166c-5.522 0-10 4.477-10 10v79.933c0 4.871 3.511 9.034 8.312 9.856.712.122 20.667.194 29.758.144 5.522-.031 9.975-4.533 9.944-10.056-.031-5.504-4.502-9.944-9.999-9.944-.019 0-.038 0-.057 0-6.165.035-12.771.06-17.958.066v-69.999c0-5.523-4.477-10-10-10z"></path><path id="XMLID_482_" d="m373.91 174.195-9.271 46.579-14.7-47.719c-1.627-5.278-7.223-8.242-12.501-6.612-3.584 1.104-6.095 4.041-6.831 7.465l-14.508 46.872-9.242-46.721c-1.071-5.418-6.336-8.939-11.75-7.87-5.418 1.072-8.941 6.333-7.869 11.75l15.587 78.799c.094.477.223.945.385 1.402 1.671 4.709 6.135 7.858 11.125 7.858h.079c5.022-.033 9.482-3.251 11.099-8.006.03-.087.058-.174.085-.262l14.785-47.767 14.719 47.777c.042.136.086.271.134.404 1.672 4.705 6.136 7.853 11.124 7.853h.082c5.021-.035 9.48-3.252 11.096-8.006.141-.414.255-.838.34-1.267l15.648-78.629c1.078-5.417-2.439-10.681-7.855-11.759-5.421-1.078-10.683 2.442-11.761 7.859z"></path><path id="XMLID_485_" d="m455.071 494.929c-18.157-18.157-18.157-47.7 0-65.857.226-.226.442-.463.646-.71 1.223-1.482 2.027-3.322 2.232-5.338.034-.336.052-.677.052-1.022v-141.002c0-5.522-4.478-10-10-10s-10 4.478-10 10v131h-334.001c-11.248 0-21.637 3.735-30 10.027v-376.027c0-14.336 11.664-26 26-26h338v171c0 5.523 4.478 10 10 10s10-4.477 10-10v-181c0-5.523-4.478-10-10-10h-348c-25.364 0-46 20.636-46 46v416c0 27.57 22.43 50 50 50h344c2.56 0 5.118-.977 7.071-2.929 3.905-3.905 3.905-10.237 0-14.142zm-129.071-62.929v45.857l-22.929-22.929c-1.953-1.951-4.512-2.928-7.071-2.928s-5.118.977-7.071 2.929l-22.929 22.928v-45.857zm-14.143 60h-31.715l15.858-15.857zm-237.857-30c0-16.542 13.458-30 30-30h142v60h-142c-16.542 0-30-13.458-30-30zm354.589 30h-82.589v-60h82.602c-9.484 18.807-9.489 41.193-.013 60z"></path><path id="XMLID_489_" d="m448 226c-2.63 0-5.21 1.07-7.07 2.93s-2.93 4.44-2.93 7.07 1.069 5.21 2.93 7.07 4.44 2.93 7.07 2.93 5.21-1.07 7.069-2.93c1.86-1.86 2.931-4.44 2.931-7.07s-1.07-5.21-2.931-7.07c-1.859-1.86-4.439-2.93-7.069-2.93z"></path></g></g></svg>