<svg xmlns="http://www.w3.org/2000/svg" height="512pt" viewBox="-49 0 512 512.00076" width="512pt"><path d="m226.648438 173.40625h-36.867188l-105.226562 282.0625h247.308593zm-18.433594 66.816406 65.140625 174.621094h-130.28125zm0 0" fill="#ffcf70"></path><path d="m256.964844 128.261719c0 21.601562-14.058594 39.925781-33.515625 46.324219-4.792969 1.574218-9.914063 2.425781-15.234375 2.425781-26.921875 0-48.75-21.824219-48.75-48.75 0-26.921875 21.828125-48.746094 48.75-48.746094 5.320312 0 10.441406.851563 15.234375 2.425781 19.457031 6.398438 33.515625 24.71875 33.515625 46.320313zm0 0" fill="#e53045"></path><path d="m256.964844 128.261719c0 21.601562-14.058594 39.925781-33.515625 46.324219-19.46875-6.398438-33.523438-24.722657-33.523438-46.324219 0-21.601563 14.054688-39.921875 33.523438-46.320313 19.457031 6.398438 33.515625 24.71875 33.515625 46.320313zm0 0" fill="#ff7265"></path><path d="m406.109375 479.929688c0 6.753906-2.742187 12.871093-7.164063 17.296874-4.425781 4.425782-10.542968 7.15625-17.296874 7.15625h-349.574219c-13.507813 0-24.453125-10.945312-24.453125-24.453124 0-6.753907 2.742187-12.871094 7.167968-17.296876 4.421876-4.421874 10.53125-7.164062 17.285157-7.164062h349.574219c13.507812 0 24.460937 10.953125 24.460937 24.460938zm0 0" fill="#d6d3c4"></path><path d="m406.109375 479.929688c0 6.753906-2.742187 12.871093-7.164063 17.296874-4.425781 4.425782-10.542968 7.15625-17.296874 7.15625h-267.359376c-13.5 0-24.453124-10.945312-24.453124-24.453124 0-6.753907 2.742187-12.871094 7.167968-17.296876 4.421875-4.421874 10.539063-7.164062 17.285156-7.164062h267.359376c13.507812 0 24.460937 10.953125 24.460937 24.460938zm0 0" fill="#fbf2dc"></path><path d="m87.566406 256.53125c1.945313 0 3.898438-.746094 5.382813-2.234375 2.976562-2.972656 2.976562-7.796875 0-10.769531-63.554688-63.554688-63.554688-166.96875 0-230.523438 2.976562-2.972656 2.976562-7.796875 0-10.769531-2.972657-2.976563-7.796875-2.976563-10.769531 0-69.496094 69.492187-69.496094 182.570313 0 252.066406 1.484374 1.484375 3.4375 2.230469 5.386718 2.230469zm0 0"></path><path d="m323.472656 243.527344c-2.972656 2.972656-2.972656 7.796875 0 10.769531 1.488282 1.488281 3.4375 2.230469 5.386719 2.230469s3.898437-.742188 5.386719-2.230469c69.492187-69.496094 69.492187-182.570313 0-252.066406-2.976563-2.972657-7.800782-2.972657-10.773438 0-2.972656 2.976562-2.972656 7.796875 0 10.773437 63.554688 63.554688 63.554688 166.964844 0 230.523438zm0 0"></path><path d="m110.902344 225.574219c1.488281 1.488281 3.4375 2.230469 5.386718 2.230469 1.949219 0 3.898438-.742188 5.386719-2.230469 2.972657-2.976563 2.972657-7.800781 0-10.773438-47.714843-47.714843-47.714843-125.355469 0-173.070312 2.972657-2.976563 2.972657-7.796875 0-10.773438-2.976562-2.972656-7.796875-2.972656-10.773437 0-53.652344 53.65625-53.652344 140.960938 0 194.617188zm0 0"></path><path d="m330.53125 128.265625c0 32.726563-12.707031 63.460937-35.785156 86.535156-2.972656 2.976563-2.972656 7.796875 0 10.773438 1.488281 1.484375 3.4375 2.230469 5.386718 2.230469 1.949219 0 3.898438-.742188 5.386719-2.230469 25.953125-25.953125 40.246094-60.511719 40.246094-97.308594s-14.292969-71.355469-40.246094-97.308594c-2.976562-2.972656-7.796875-2.972656-10.773437 0-2.972656 2.976563-2.972656 7.796875 0 10.773438 23.078125 23.074219 35.785156 53.804687 35.785156 86.535156zm0 0"></path><path d="m139.628906 196.847656c1.488282 1.484375 3.4375 2.230469 5.386719 2.230469s3.898437-.742187 5.386719-2.230469c2.972656-2.976562 2.972656-7.800781 0-10.773437-31.878906-31.875-31.878906-83.742188 0-115.621094 2.972656-2.972656 2.972656-7.796875 0-10.769531-2.976563-2.976563-7.800782-2.976563-10.773438 0-37.816406 37.816406-37.816406 99.347656 0 137.164062zm0 0"></path><path d="m289.925781 128.265625c0 21.863281-8.488281 42.394531-23.902343 57.808594-2.976563 2.976562-2.976563 7.796875 0 10.773437 1.484374 1.488282 3.433593 2.230469 5.382812 2.230469s3.898438-.742187 5.386719-2.230469c18.292969-18.292968 28.367187-42.648437 28.367187-68.582031s-10.074218-50.292969-28.367187-68.582031c-2.972657-2.976563-7.796875-2.976563-10.769531 0-2.976563 2.972656-2.976563 7.796875 0 10.769531 15.414062 15.417969 23.902343 35.945313 23.902343 57.8125zm0 0"></path><path d="m381.652344 447.855469h-44.496094l-69.933594-187.46875c-1.46875-3.941407-5.855468-5.945313-9.796875-4.472657-3.941406 1.46875-5.945312 5.855469-4.476562 9.796876l67.945312 182.140624h-225.367187l98.839844-264.945312c4.433593 1.121094 9.070312 1.722656 13.84375 1.722656 4.777343 0 9.417968-.601562 13.851562-1.726562l19.878906 53.296875c1.144532 3.066406 4.050782 4.960937 7.140625 4.960937.882813 0 1.78125-.15625 2.660157-.484375 3.941406-1.46875 5.945312-5.855469 4.472656-9.796875l-20.035156-53.710937c16.949218-9.730469 28.398437-28 28.398437-48.902344 0-31.082031-25.285156-56.367187-56.367187-56.367187-31.078126 0-56.363282 25.285156-56.363282 56.367187 0 20.90625 11.449219 39.175781 28.398438 48.90625l-100.980469 270.683594h-47.191406c-17.6875 0-32.074219 14.386719-32.074219 32.074219 0 17.683593 14.386719 32.070312 32.074219 32.070312h17.707031c4.207031 0 7.617188-3.410156 7.617188-7.617188 0-4.207031-3.410157-7.617187-7.617188-7.617187h-17.707031c-9.285157 0-16.839844-7.554687-16.839844-16.835937 0-9.285157 7.554687-16.839844 16.839844-16.839844h349.578125c9.285156 0 16.835937 7.554687 16.835937 16.839844 0 9.28125-7.550781 16.835937-16.835937 16.835937h-301.402344c-4.207031 0-7.617188 3.410156-7.617188 7.617187 0 4.207032 3.410157 7.617188 7.617188 7.617188h301.402344c17.683594 0 32.070312-14.386719 32.070312-32.070312 0-17.6875-14.386718-32.074219-32.070312-32.074219zm-214.574219-319.589844c0-22.679687 18.453125-41.132813 41.132813-41.132813 22.679687 0 41.132812 18.453126 41.132812 41.132813s-18.453125 41.132813-41.132812 41.132813c-22.679688 0-41.132813-18.453126-41.132813-41.132813zm0 0"></path><path d="m208.210938 232.601562c-3.179688 0-6.023438 1.976563-7.136719 4.957032l-65.140625 174.628906c-.871094 2.339844-.542969 4.957031.878906 7.003906 1.421875 2.050782 3.761719 3.273438 6.257812 3.273438h130.28125c2.5 0 4.835938-1.222656 6.257813-3.273438 1.425781-2.046875 1.753906-4.664062.878906-7.003906l-65.140625-174.628906c-1.109375-2.980469-3.957031-4.957032-7.136718-4.957032zm0 29.410157 13.207031 35.410156-21.992188-11.859375zm44.832031 120.1875-74.007813-19.25 52.917969-37.296875zm-76.074219-36.429688 17.082031-45.796875 27.136719 14.628906zm-22.925781 61.460938 11.914062-31.941407 93.589844 24.339844 2.835937 7.601563zm0 0"></path></svg>